<?xml version="1.0" encoding="UTF-8"?>
<svg id="Capa_1" data-name="Capa 1" xmlns="http://www.w3.org/2000/svg" viewBox="0 0 464.91 98.78">
  <defs>
    <style>
      .cls-1 {
        fill: #fff;
      }
    </style>
  </defs>
  <path class="cls-1" d="M37.01,12.96L.06,96.67c-.21.48.14,1.01.66,1.01h22.98c.29,0,.56-.18.67-.45l6.33-15.76c.11-.27.37-.45.67-.45h35.04c.29,0,.56.18.67.45l6.33,15.76c.11.27.37.45.67.45h23.46c.52,0,.87-.54.66-1.01L61.12,12.96c-.12-.26-.37-.43-.66-.43h-22.78c-.29,0-.54.17-.66.43ZM38.35,62.39l9.86-24.57c.24-.6,1.1-.6,1.34,0l9.86,24.57c.19.47-.16.99-.67.99h-19.72c-.51,0-.86-.52-.67-.99Z"/>
  <path class="cls-1" d="M162.2,34.73c-4.91-2.8-10.36-4.2-16.36-4.2-5.6,0-10.38,1.24-14.35,3.71-1,.62-1.94,1.33-2.81,2.11-.47.42-1.2.09-1.2-.53V8.14c0-.4-.32-.72-.72-.72h-21.67c-.4,0-.72.32-.72.72v88.82c0,.4.32.72.72.72h20.7c.4,0,.72-.32.72-.72v-3.95c0-.64.77-.96,1.23-.51,1.02,1,2.12,1.87,3.33,2.62,3.93,2.43,8.86,3.65,14.78,3.65s11.45-1.4,16.36-4.2c4.91-2.8,8.8-6.73,11.68-11.8,2.88-5.07,4.32-11.09,4.32-18.06s-1.44-13.12-4.32-18.19c-2.88-5.07-6.77-9-11.68-11.8ZM152.95,73.17c-1.26,2.39-2.92,4.2-4.99,5.41-2.07,1.22-4.4,1.82-6.99,1.82s-4.93-.61-6.99-1.82c-2.07-1.22-3.73-3.02-4.99-5.41-1.26-2.39-1.89-5.21-1.89-8.45,0-3.49.63-6.37,1.89-8.64,1.26-2.27,2.92-4.01,4.99-5.23,2.07-1.22,4.4-1.82,6.99-1.82s4.93.61,6.99,1.82c2.07,1.22,3.73,2.96,4.99,5.23,1.26,2.27,1.89,5.15,1.89,8.64,0,3.24-.63,6.06-1.89,8.45Z"/>
  <path class="cls-1" d="M211.04,37.7v-5.35c0-.4-.32-.72-.72-.72h-20.7c-.4,0-.72.32-.72.72v64.61c0,.4.32.72.72.72h21.67c.4,0,.72-.32.72-.72v-29.57c0-5.76,1.46-9.91,4.38-12.47,2.92-2.55,6.73-3.83,11.43-3.83.81,0,1.62.02,2.43.06.6.03,1.26.09,1.99.19.43.06.81-.28.81-.72v-19.36c0-.4-.34-.73-.74-.73-5.92.1-10.97,1.35-15.14,3.77-1.85,1.07-3.47,2.37-4.9,3.88-.45.48-1.25.17-1.25-.49Z"/>
  <path class="cls-1" d="M264.56,3.28c-2.6-2.19-6-3.28-10.22-3.28s-7.72,1.16-10.28,3.47c-2.55,2.31-3.83,5.21-3.83,8.7s1.28,6.41,3.83,8.76c2.55,2.35,5.98,3.53,10.28,3.53s7.72-1.22,10.28-3.65c2.55-2.43,3.83-5.47,3.83-9.12,0-3.41-1.3-6.2-3.89-8.39Z"/>
  <rect class="cls-1" x="242.79" y="31.63" width="23.11" height="66.05" rx=".72" ry=".72"/>
  <rect class="cls-1" x="280.86" y="7.42" width="23.11" height="90.26" rx=".72" ry=".72"/>
  <rect class="cls-1" x="355.55" y="12.53" width="24.09" height="85.15"/>
  <polygon class="cls-1" points="388.64 12.53 388.64 31.63 414.79 31.63 414.79 97.68 438.88 97.68 438.88 31.63 464.91 31.63 464.91 12.53 388.64 12.53"/>
</svg>